<?xml version="1.0" standalone="no"?>
<!DOCTYPE svg PUBLIC "-//W3C//DTD SVG 20010904//EN"
 "http://www.w3.org/TR/2001/REC-SVG-20010904/DTD/svg10.dtd">
<svg version="1.0" xmlns="http://www.w3.org/2000/svg"
 width="1000.000000pt" height="1000.000000pt" viewBox="0 0 1000.000000 1000.000000"
 preserveAspectRatio="xMidYMid meet">
<metadata>
Created by potrace 1.14, written by Peter Selinger 2001-2017
</metadata>
<g transform="translate(0.000000,1000.000000) scale(0.100000,-0.100000)"
fill="#000000" stroke="none">
<path d="M4909 9872 c-46 -24 -1418 -821 -2664 -1547 -187 -109 -354 -211
-371 -227 -48 -45 -54 -84 -55 -315 l0 -208 -338 -198 c-265 -155 -349 -208
-385 -247 -52 -56 -90 -130 -106 -205 -7 -34 -9 -748 -8 -2205 l3 -2155 22
-58 c27 -71 82 -146 137 -185 23 -16 342 -205 711 -419 369 -215 1179 -686
1800 -1048 622 -362 1155 -670 1185 -684 49 -23 67 -26 160 -26 85 0 114 4
151 22 26 11 602 344 1280 739 679 395 1493 868 1809 1052 316 184 590 345
607 359 81 60 142 155 162 251 15 71 16 4274 1 4353 -16 84 -63 171 -124 226
-32 29 -183 124 -379 238 l-326 190 -3 231 c-3 227 -3 231 -28 267 -29 42 71
-18 -1759 1047 -712 414 -1309 759 -1327 766 -51 21 -97 17 -155 -14z m159
-331 c37 -21 616 -358 1287 -748 671 -391 1262 -734 1313 -763 50 -29 92 -56
92 -60 0 -4 -116 -73 -257 -153 -142 -80 -764 -431 -1381 -781 l-1124 -635
-1111 596 c-612 328 -1247 668 -1412 756 -165 88 -304 163 -308 167 -5 4 209
134 475 289 1514 881 2353 1370 2356 1370 2 1 34 -16 70 -38z m2810 -3427 l-3
-1566 -90 -53 c-49 -28 -288 -167 -530 -309 l-440 -256 -3 1572 c-1 864 1
1575 5 1579 5 4 229 132 498 284 270 153 504 285 520 295 17 10 33 19 38 19 4
1 6 -704 5 -1565z m-5349 1271 c349 -187 391 -212 385 -230 -4 -11 -8 -39 -8
-63 0 -34 5 -48 29 -71 48 -48 922 -522 972 -528 49 -6 84 12 111 56 l17 28
405 -217 405 -218 3 -676 2 -677 -22 12 c-38 20 -2206 1191 -2465 1332 l-243
131 0 669 c0 368 4 667 9 665 4 -1 184 -97 400 -213z m4001 -2043 l0 -1578
-557 -325 c-307 -178 -617 -359 -690 -401 l-133 -77 2 1592 3 1592 685 387
c377 213 686 388 688 388 1 0 2 -710 2 -1578z m-4210 541 c102 -55 292 -158
423 -228 l237 -127 -39 -20 c-31 -15 -44 -30 -56 -63 -16 -41 -16 -45 3 -86
19 -44 21 -45 481 -293 433 -233 465 -248 502 -243 22 3 50 14 61 24 31 27 50
80 43 115 l-7 30 109 -59 c60 -32 258 -139 441 -238 l332 -180 0 -774 c0 -614
-3 -772 -12 -768 -11 4 -1295 750 -2495 1449 l-223 130 0 719 c0 396 3 718 8
716 4 -3 90 -49 192 -104z"/>
<path d="M7038 6197 c-15 -12 -32 -35 -38 -50 -6 -18 -10 -197 -10 -489 l0
-460 34 -34 c28 -28 42 -34 75 -34 56 0 95 22 115 64 14 30 16 89 16 496 l0
462 -34 34 c-29 29 -41 34 -82 34 -36 0 -56 -6 -76 -23z"/>
<path d="M6158 5702 c-58 -35 -58 -38 -58 -537 0 -509 -1 -498 68 -531 63 -30
143 7 162 74 6 23 10 207 10 480 0 376 -2 447 -15 472 -29 56 -112 77 -167 42z"/>
</g>
</svg>
